<svg width="395" height="531" viewBox="0 0 395 531" fill="none" xmlns="http://www.w3.org/2000/svg">
<path d="M51.2603 482.75C48.4403 480.41 47.0303 477.15 47.0303 472.99C47.0303 470.98 47.4003 469.1 48.1403 467.36C48.8803 465.62 49.9803 463.94 51.4603 462.33L51.8603 461.93L98.1503 415.04C98.9603 414.23 99.6903 413.53 100.36 412.93C101.03 412.33 101.7 411.76 102.37 411.22L106.6 407.6H60.5203C57.0303 407.6 54.2803 406.76 52.2703 405.09C50.2603 403.41 49.2503 401.03 49.2503 397.95C49.2503 394.87 50.2603 392.45 52.2703 390.71C54.2803 388.97 57.0303 388.09 60.5203 388.09H118.48C123.44 388.09 127.37 389.33 130.25 391.81C133.13 394.29 134.58 397.61 134.58 401.77C134.58 403.92 134.18 405.86 133.37 407.61C132.56 409.36 131.36 411.1 129.75 412.84L129.35 413.24L83.6703 459.73C80.7203 462.68 78.1003 465.03 75.8203 466.77H125.33C128.82 466.77 131.57 467.61 133.58 469.28C135.59 470.96 136.6 473.34 136.6 476.42C136.6 479.5 135.59 481.92 133.58 483.66C131.57 485.4 128.82 486.28 125.33 486.28H62.7403C57.9103 486.28 54.0903 485.11 51.2703 482.76L51.2603 482.75Z" fill="black"/>
<path d="M170.8 483.56C163.15 479.33 157.22 473.3 152.99 465.45C148.76 457.6 146.65 448.31 146.65 437.58C146.65 426.85 148.79 417.73 153.09 409.81C157.38 401.9 163.32 395.76 170.9 391.4C178.48 387.04 187.17 384.86 196.96 384.86C206.75 384.86 215.47 387.01 223.12 391.3C230.77 395.6 236.74 401.73 241.03 409.71C245.32 417.69 247.47 426.98 247.47 437.58C247.47 448.18 245.32 457.6 241.03 465.45C236.73 473.3 230.77 479.34 223.12 483.56C215.47 487.78 206.75 489.9 196.96 489.9C187.17 489.9 178.45 487.79 170.8 483.56ZM210.34 466.65C214.16 464.03 217.15 460.25 219.3 455.28C221.44 450.32 222.52 444.41 222.52 437.57C222.52 427.11 220.17 418.96 215.48 413.12C210.78 407.28 204.61 404.37 196.97 404.37C192.01 404.37 187.61 405.68 183.79 408.29C179.97 410.91 176.98 414.7 174.84 419.66C172.69 424.62 171.62 430.6 171.62 437.57C171.62 444.54 172.66 450.32 174.74 455.28C176.82 460.25 179.77 464.03 183.59 466.65C187.41 469.27 191.87 470.57 196.97 470.57C202.07 470.57 206.53 469.26 210.35 466.65H210.34Z" fill="black"/>
<path d="M284.5 528.33C282.08 527.12 280.34 525.14 279.27 522.39C278.19 519.64 278.46 516.12 280.07 511.83L290.13 485.47L257.93 404.17C256.32 400.01 255.98 396.49 256.92 393.61C257.86 390.73 259.54 388.61 261.95 387.27C264.37 385.93 266.91 385.26 269.6 385.26C272.29 385.26 274.86 386.1 276.95 387.78C279.03 389.46 280.6 391.97 281.68 395.33L300.19 451.48C301.53 455.1 302.54 459 303.21 463.15C303.61 461.54 304.02 460 304.42 458.52C304.82 457.05 305.23 455.7 305.63 454.5L306.44 451.48L324.15 394.93C324.82 392.79 325.73 390.97 326.87 389.5C328.01 388.03 329.29 386.92 330.69 386.18C332.1 385.44 333.61 385.07 335.22 385.07C337.36 385.07 339.65 385.67 342.06 386.88C344.47 388.09 346.22 390.03 347.29 392.72C348.36 395.4 348.16 398.83 346.69 402.98L303.02 520.1L302.62 521.31C301.81 523.19 300.84 524.8 299.7 526.14C298.56 527.48 297.32 528.48 295.98 529.16C294.64 529.83 293.16 530.17 291.55 530.17C289.27 530.17 286.92 529.57 284.51 528.36L284.5 528.33Z" fill="black"/>
<path d="M53.5798 83.2295C54.0898 83.5095 59.9698 78.0996 60.6098 77.5796C63.3198 75.4096 66.0298 73.2295 68.7398 71.0595C74.2798 66.6195 79.8098 62.1695 85.3498 57.7295C87.6198 55.9095 89.8798 54.0896 92.1498 52.2696C97.3598 48.0896 102.98 44.1395 107.78 39.5095C108.44 38.8695 109.12 38.1895 109.43 37.3195C109.85 36.1495 109.54 34.8396 109.11 33.6696C106.92 27.6896 100.42 21.3596 93.6798 21.1096C85.5098 20.8096 77.3198 20.5596 69.1798 21.1996C64.3298 21.5796 60.2898 24.1195 57.3398 28.1495C54.0698 31.6795 52.9498 35.9696 52.9498 40.6396C52.9498 54.1696 52.9398 67.6995 52.9498 81.2295C52.9498 81.8795 52.5798 82.6895 53.5598 83.2295H53.5798Z" fill="url(#paint0_linear_89_95)"/>
<path d="M392.84 150.579C391.56 148.459 389.84 146.549 387.98 144.919C384.31 141.689 380.21 139.019 376.56 135.769C372.55 132.209 368.25 128.919 364.1 125.529C355.41 118.429 346.69 111.359 337.95 104.299C320.48 90.1995 302.94 76.1695 285.39 62.1595C267.85 48.1495 250.3 34.1395 232.8 20.0695C232.1 19.5095 231.4 18.9395 230.7 18.3795C221.22 10.7495 210.95 0.399466 197.98 0.00946642C183.52 -0.420534 170.04 13.8995 159.46 22.3895C108.62 63.1695 57.5699 103.829 7.15992 145.009C2.71992 148.629 -0.950079 153.809 0.219921 159.849C1.22992 165.069 5.75993 168.799 10.9499 169.389C23.9599 172.369 37.1699 169.579 50.2999 169.839C51.0399 169.849 51.8999 169.939 52.3299 170.539C52.6299 170.959 52.6399 171.509 52.6399 172.019C52.6399 191.029 51.8399 210.059 54.9799 228.899C61.8599 269.229 86.4899 306.199 121.06 328.079C184.52 368.259 270.02 352.559 315.96 293.569C317.71 291.319 319.39 289.029 321.01 286.679C345.17 251.559 347.19 213.779 346.8 172.689C346.8 171.899 346.82 171.009 347.36 170.439C347.78 169.999 348.42 169.839 349.02 169.809C356.02 169.489 363.02 169.919 370.01 170.019C373.76 170.079 377.61 170.099 381.35 169.789C384.57 169.519 387.85 168.729 390.42 166.769C393.15 164.689 394.88 161.339 394.96 157.909C395.02 155.289 394.17 152.799 392.82 150.549L392.84 150.579ZM25.7999 169.359H25.7699H25.7899H25.7999ZM51.8899 111.449C51.8899 111.449 51.9299 111.459 51.9499 111.469C51.9199 111.489 51.8899 111.509 51.8599 111.539C51.8699 111.509 51.8799 111.479 51.8899 111.449ZM347.46 116.609C347.53 116.459 347.6 116.309 347.69 116.159C347.72 116.309 347.62 116.459 347.46 116.609ZM312.85 94.2195C312.85 94.0595 312.86 93.8895 312.87 93.7295C312.92 93.8795 312.92 94.0395 312.85 94.2195ZM264.99 126.199C264.99 126.199 264.99 126.219 264.99 126.239C264.99 126.239 264.97 126.229 264.97 126.219C264.97 126.219 264.99 126.219 265 126.209L264.99 126.199ZM291.86 303.499C291.86 303.499 291.91 303.529 291.94 303.539C291.93 303.549 291.92 303.559 291.91 303.569C291.89 303.539 291.88 303.519 291.87 303.489L291.86 303.499ZM292.1 207.329C292.02 207.409 291.94 207.479 291.86 207.539C291.86 207.449 291.86 207.359 291.86 207.279C291.95 207.279 292.03 207.309 292.1 207.329ZM203.99 6.37946C203.99 6.37946 203.96 6.33946 203.95 6.31946C203.97 6.31946 204 6.31946 204.02 6.31946C204.01 6.33946 204 6.35946 203.99 6.37946ZM180.07 9.09946C180.07 9.09946 180.04 9.13947 180.03 9.14947C180.03 9.14947 180.03 9.13946 180.01 9.12946C179.97 9.08946 179.94 9.05947 179.91 9.02947C179.95 9.02947 179.99 9.02946 180.01 9.01946C180.02 9.04946 180.04 9.07946 180.06 9.09946H180.07ZM126.55 130.349C126.55 130.349 126.53 130.249 126.52 130.209C126.53 130.169 126.55 130.129 126.56 130.089C126.58 130.119 126.6 130.149 126.62 130.169C126.6 130.229 126.57 130.289 126.55 130.349ZM119.71 55.3295C119.71 55.3295 119.71 55.3095 119.66 55.1995C119.55 54.8995 119.7 55.2995 119.71 55.3295ZM106.47 227.169C106.59 227.269 106.69 227.389 106.79 227.499C106.67 227.499 106.54 227.519 106.4 227.539C106.4 227.409 106.4 227.279 106.47 227.169ZM140.19 286.069C140.19 286.069 140.24 286.069 140.27 286.069C140.26 286.089 140.25 286.109 140.24 286.129C140.22 286.109 140.21 286.099 140.19 286.079V286.069ZM195.87 350.369C195.87 350.369 195.87 350.369 195.86 350.369H195.87ZM197.11 349.309C197.05 349.339 196.99 349.369 196.93 349.389C194.2 344.579 189.62 340.269 186.1 335.999C181.93 330.939 177.77 325.879 173.6 320.819C165.41 310.869 157.22 300.919 149.03 290.979C135.34 274.349 122.02 258.169 112.7 238.519C110.53 233.949 108.55 229.269 107.17 224.409C97.3899 189.869 109.47 151.879 134.16 126.339C138.91 121.419 144.27 117.089 150.05 113.439C161.48 106.209 174.59 101.599 188.05 100.279C213.25 97.7995 239.22 106.679 258.09 123.559C268.23 132.639 276.3 143.949 281.86 156.359C284.61 162.489 286.74 168.899 288.22 175.449C290.7 186.439 292.03 197.989 290.22 209.109C288.97 216.779 287.72 224.489 285.4 231.909C281.71 243.709 275.42 254.499 268.08 264.389C257.65 278.469 245.61 291.499 234.42 304.989C228.07 312.639 221.73 320.289 215.38 327.939C212.21 331.769 209.03 335.589 205.86 339.419C203.15 342.689 201.13 347.459 197.1 349.319L197.11 349.309ZM271.76 264.369C271.88 264.349 271.98 264.359 272.08 264.399C271.98 264.379 271.87 264.369 271.76 264.369ZM373.65 169.369C373.78 169.249 373.91 169.159 374.05 169.079C374.02 169.159 373.99 169.259 373.96 169.369C373.86 169.369 373.76 169.369 373.66 169.369H373.65Z" fill="url(#paint1_linear_89_95)"/>
<path d="M220.62 245.5C226.07 242.82 231.28 238.85 234.92 235.6C242.36 228.96 248.13 220.4 251.18 210.89C257.04 192.6 252.68 171.38 240.08 156.88C226.11 140.8 202.59 133.72 182.08 139.59C175.43 141.49 169.12 144.61 163.59 148.78C134.31 170.87 134.23 216.26 163.42 238.49C178.8 250.2 202.87 254.22 220.61 245.51L220.62 245.5ZM200.79 243.15C200.87 243.15 200.93 243.15 201 243.16C200.96 243.21 200.92 243.25 200.89 243.3C200.85 243.25 200.82 243.2 200.78 243.15H200.79ZM194.36 245.59C194.36 245.59 194.43 245.61 194.47 245.61C194.44 245.63 194.4 245.65 194.36 245.67C194.36 245.64 194.36 245.61 194.36 245.59Z" fill="url(#paint2_linear_89_95)"/>
<defs>
<linearGradient id="paint0_linear_89_95" x1="48.5698" y1="22.8395" x2="312.53" y2="300.979" gradientUnits="userSpaceOnUse">
<stop stop-color="#E52067"/>
<stop offset="1" stop-color="#265EDB"/>
</linearGradient>
<linearGradient id="paint1_linear_89_95" x1="48.7199" y1="22.7095" x2="312.67" y2="300.839" gradientUnits="userSpaceOnUse">
<stop stop-color="#E52067"/>
<stop offset="1" stop-color="#265EDB"/>
</linearGradient>
<linearGradient id="paint2_linear_89_95" x1="41.62" y1="29.4395" x2="305.58" y2="307.57" gradientUnits="userSpaceOnUse">
<stop stop-color="#E52067"/>
<stop offset="1" stop-color="#265EDB"/>
</linearGradient>
</defs>
</svg>
